<svg width="40" height="40" viewBox="0 0 40 40" fill="none" xmlns="http://www.w3.org/2000/svg">
<g clip-path="url(#clip0_1714_290)">
<path d="M8 32H36V36H4V4H8V32ZM13 30C11.343 30 10 28.657 10 27C10 25.343 11.343 24 13 24C13.088 24 13.176 24.005 13.262 24.012L16.487 18.637C16.18 18.166 16 17.604 16 16.999C16 15.342 17.343 13.999 19 13.999C20.657 13.999 22 15.342 22 16.999C22 17.603 21.821 18.166 21.513 18.637L24.738 24.012C24.824 24.005 24.912 24 25 24C25.067 24 25.133 24.003 25.198 24.007L30.522 14.691C30.193 14.209 30 13.627 30 13C30 11.343 31.343 10 33 10C34.657 10 36 11.343 36 13C36 14.657 34.657 16 33 16C32.933 16 32.867 15.997 32.802 15.993L27.478 25.309C27.807 25.79 28 26.373 28 27C28 28.657 26.657 30 25 30C23.343 30 22 28.657 22 27C22 26.396 22.179 25.833 22.487 25.362L19.262 19.987C19.176 19.994 19.088 19.999 19 19.999C18.912 19.999 18.824 19.994 18.738 19.987L15.513 25.362C15.82 25.833 16 26.395 16 26.999C16 28.656 14.657 30 13 30Z" fill="black"/>
</g>
<defs>
<clipPath id="clip0_1714_290">
<rect width="32" height="32" fill="white" transform="translate(4 4)"/>
</clipPath>
</defs>
</svg>
